<?xml version="1.0" encoding="UTF-8" ?>
<!DOCTYPE svg PUBLIC "-//W3C//DTD SVG 1.1//EN" "http://www.w3.org/Graphics/SVG/1.1/DTD/svg11.dtd">
<svg width="920pt" height="191pt" viewBox="0 0 920 191" version="1.1" xmlns="http://www.w3.org/2000/svg">
<path fill="#23356d" d=" M 218.62 14.78 C 224.11 13.22 229.97 12.85 235.63 13.47 C 243.25 15.14 250.56 19.47 254.80 26.14 C 256.73 29.11 257.26 32.79 259.29 35.70 C 262.22 38.55 266.62 39.49 269.18 42.82 C 272.77 47.40 275.65 53.37 274.32 59.32 C 273.42 63.71 273.31 68.35 271.45 72.48 C 268.47 77.94 263.85 82.24 260.37 87.35 C 257.74 91.23 256.52 95.93 253.55 99.59 C 250.86 102.82 246.83 104.43 243.12 106.14 C 239.36 107.59 235.75 109.63 231.73 110.24 C 227.20 110.54 222.68 109.16 218.15 109.80 C 215.86 110.94 216.15 113.80 216.07 115.94 C 216.16 121.48 216.21 127.02 216.60 132.55 C 219.85 132.63 223.25 131.70 226.39 132.64 C 231.63 136.31 235.74 141.47 239.25 146.76 C 241.32 151.98 243.33 157.39 244.08 162.96 C 244.59 166.93 238.98 167.76 236.65 165.46 C 235.46 161.04 236.37 156.32 235.02 151.93 C 233.68 147.51 230.42 143.93 226.79 141.22 C 224.64 139.62 221.41 138.41 219.04 140.25 C 218.32 143.83 219.09 147.47 219.21 151.08 C 219.41 154.72 218.22 158.26 218.23 161.89 C 218.25 164.84 218.35 167.80 218.20 170.75 C 216.73 170.90 215.27 171.05 213.80 171.20 C 211.26 165.08 212.68 158.43 212.32 152.03 C 212.22 149.13 212.00 146.24 211.76 143.36 C 209.46 143.85 206.94 144.40 205.37 146.33 C 200.11 152.67 197.63 160.67 195.62 168.53 C 193.72 168.08 191.81 167.67 189.90 167.27 C 190.20 161.01 190.55 154.70 191.86 148.55 C 193.95 142.95 198.62 138.87 202.99 135.02 C 205.94 132.40 210.69 130.98 211.41 126.59 C 212.26 121.86 211.70 117.02 211.45 112.26 C 205.25 111.54 198.68 112.64 192.83 109.97 C 190.05 108.95 187.73 106.86 184.84 106.20 C 180.11 105.91 175.06 107.72 170.58 105.49 C 167.29 103.54 164.67 100.67 162.16 97.84 C 157.68 92.79 156.06 86.06 154.06 79.79 C 151.93 73.52 147.20 67.94 147.24 61.07 C 147.87 55.32 148.18 48.92 152.39 44.46 C 155.24 40.55 159.65 38.34 163.09 35.09 C 166.51 29.87 168.03 23.17 173.29 19.29 C 176.33 17.25 178.92 13.60 182.96 13.83 C 187.63 14.04 192.25 14.88 196.92 15.21 C 201.26 15.45 204.92 18.05 209.05 19.05 C 212.51 18.37 215.20 15.69 218.62 14.78 Z" />
<path fill="#fefdfd" d=" M 219.38 20.48 C 229.73 15.79 242.66 19.69 249.72 28.31 C 252.50 31.53 251.16 36.42 253.30 39.79 C 258.42 43.12 264.71 45.78 267.17 51.87 C 270.78 59.29 265.84 66.94 262.40 73.39 C 260.92 76.71 258.00 78.94 255.73 81.66 C 254.02 85.17 254.15 89.44 251.65 92.61 C 246.56 99.72 237.83 104.21 229.05 104.08 C 225.18 104.05 221.07 104.23 217.48 102.56 C 215.07 101.37 215.66 98.31 215.98 96.16 C 217.76 86.49 224.25 78.70 230.51 71.49 C 233.25 68.19 238.54 65.81 237.28 60.70 C 235.26 61.13 233.06 61.17 231.29 62.34 C 225.24 66.42 221.20 72.77 215.24 76.96 C 213.78 71.53 214.27 65.76 212.68 60.38 C 211.19 59.54 209.55 59.02 207.95 58.43 C 205.81 64.27 208.79 70.05 208.97 75.87 C 209.34 78.15 206.85 78.01 205.34 77.63 C 201.16 75.78 198.59 71.56 194.38 69.75 C 189.27 67.64 183.73 66.65 178.21 66.79 C 179.01 72.10 184.75 73.10 188.72 75.26 C 197.39 79.03 203.64 86.58 208.48 94.46 C 210.38 97.51 209.84 101.26 209.72 104.67 C 205.52 105.39 201.22 105.80 196.99 105.18 C 192.88 104.57 190.25 100.96 186.65 99.27 C 181.58 98.89 176.40 101.36 171.43 99.67 C 166.21 96.94 162.84 91.57 160.86 86.18 C 159.41 82.59 160.14 78.53 158.85 74.96 C 155.90 71.20 153.16 66.97 153.07 62.01 C 152.93 55.53 154.85 48.28 160.32 44.26 C 163.15 41.36 167.24 40.67 171.00 39.75 C 172.50 35.06 173.39 29.76 177.41 26.43 C 182.76 20.87 191.08 21.88 198.08 21.94 C 202.59 21.66 205.76 25.66 210.05 26.12 C 214.15 26.47 216.24 22.31 219.38 20.48 Z" />
<path fill="#a93838" d=" M 459.91 41.21 C 461.51 42.22 463.21 43.14 464.55 44.50 C 465.52 47.23 465.04 50.21 464.93 53.04 C 464.08 61.37 465.30 69.71 465.92 78.01 C 466.17 81.86 467.02 85.62 467.89 89.36 C 475.68 89.99 482.91 85.56 487.32 79.38 C 488.99 76.34 488.73 72.68 489.51 69.37 C 490.53 64.61 491.89 59.58 495.27 55.92 C 497.46 55.69 499.66 56.06 501.85 56.31 C 501.93 62.88 499.98 69.25 497.32 75.19 C 494.65 82.52 488.71 88.05 482.47 92.43 C 477.66 94.77 472.51 96.42 467.87 99.15 C 467.63 104.02 466.87 108.99 467.88 113.82 C 470.19 115.58 473.28 115.46 476.03 115.92 C 485.85 116.87 496.16 120.58 502.35 128.65 C 505.76 133.11 508.78 138.24 509.16 143.97 C 509.63 149.34 509.54 154.77 508.87 160.13 C 506.24 159.87 502.25 161.07 501.14 157.79 C 499.14 152.93 500.67 147.33 498.47 142.51 C 495.49 136.00 491.50 129.71 485.75 125.32 C 481.36 123.12 476.22 123.31 471.43 123.11 C 469.87 123.11 467.29 123.06 467.19 125.17 C 466.61 131.41 467.20 137.71 466.60 143.96 C 465.89 150.85 466.35 157.95 464.09 164.60 C 462.43 163.07 459.76 161.79 460.23 159.11 C 460.91 147.44 458.95 135.84 457.71 124.28 C 455.57 125.14 453.30 125.94 451.64 127.62 C 446.21 132.93 441.81 139.68 440.51 147.26 C 439.78 152.07 442.14 157.59 438.87 161.80 C 437.55 163.36 436.33 165.85 433.96 165.69 C 431.65 165.87 429.57 164.02 429.18 161.80 C 428.05 156.32 428.24 150.60 429.27 145.13 C 433.40 130.97 444.46 119.28 458.09 113.82 C 458.41 109.27 458.90 104.67 458.25 100.13 C 450.77 95.90 441.52 94.18 435.74 87.29 C 431.68 81.68 425.77 77.32 423.37 70.62 C 422.20 66.73 421.98 62.52 422.67 58.53 C 423.22 55.05 428.91 54.54 430.51 57.44 C 433.88 62.40 436.96 67.86 437.39 73.97 C 437.98 81.08 445.30 85.18 451.61 86.52 C 453.69 86.76 456.44 88.25 458.06 86.25 C 459.84 78.97 458.27 71.42 458.58 64.02 C 458.96 56.42 457.39 48.59 459.91 41.21 Z" />
<path fill="#006b00" d=" M 692.24 49.10 C 696.55 48.57 701.20 48.23 705.00 50.77 C 702.80 54.20 699.38 57.51 699.78 61.92 C 700.11 68.74 699.09 75.73 701.03 82.39 C 701.28 83.53 701.53 84.67 701.79 85.82 C 702.65 91.18 705.76 95.79 708.87 100.10 C 711.81 103.85 714.05 108.14 717.60 111.39 C 722.92 116.41 727.56 122.33 734.00 126.01 C 737.56 128.08 741.06 130.25 744.61 132.34 C 748.49 134.27 752.55 135.93 755.98 138.65 C 752.93 141.44 750.40 144.76 747.27 147.45 C 745.11 148.72 743.05 146.90 741.45 145.62 C 738.35 142.99 734.67 141.12 731.72 138.30 C 722.37 129.23 712.90 119.87 706.93 108.13 C 705.07 104.86 703.75 101.02 700.59 98.73 C 698.80 97.86 696.65 96.32 694.66 97.48 C 692.14 99.10 690.69 101.81 689.03 104.21 C 678.71 119.19 666.30 132.77 651.97 144.00 C 647.17 147.18 643.00 151.53 637.24 152.95 C 638.05 148.16 642.48 145.76 645.72 142.72 C 652.04 137.35 657.12 130.74 662.72 124.67 C 668.48 118.59 672.92 111.45 677.52 104.49 C 681.31 99.08 683.25 92.66 686.89 87.16 C 687.88 85.54 688.86 83.91 689.71 82.21 C 690.96 79.33 691.00 76.13 691.04 73.04 C 691.08 65.05 690.43 56.96 692.24 49.10 Z" />
<path fill="#000000" d=" M 355.93 73.01 C 356.36 71.35 355.48 68.14 358.00 68.12 C 361.70 70.25 364.80 73.26 368.21 75.81 C 375.42 82.07 383.74 86.87 390.83 93.28 C 388.85 97.41 384.51 99.30 381.30 102.27 C 376.79 106.60 370.80 108.95 366.33 113.33 C 363.53 116.10 360.18 118.18 356.75 120.06 C 355.86 116.10 355.75 112.03 355.55 107.99 C 343.42 106.44 331.13 108.16 318.97 107.06 C 317.11 106.84 314.07 106.32 314.45 103.79 C 314.40 97.29 314.26 90.76 314.56 84.26 C 314.36 81.75 316.93 80.56 319.07 80.56 C 329.98 80.80 340.91 80.97 351.81 80.67 C 355.80 80.50 355.90 75.98 355.93 73.01 Z" />
<path fill="#000000" d=" M 588.73 68.22 C 593.32 69.40 596.91 72.60 600.58 75.42 C 604.26 78.44 608.49 80.72 612.02 83.94 C 615.73 87.17 620.29 89.39 623.59 93.07 C 624.20 95.27 621.91 96.32 620.56 97.54 C 616.76 100.41 613.06 103.42 609.07 106.03 C 602.45 110.66 596.53 116.30 589.54 120.39 C 588.90 116.09 588.21 111.80 587.38 107.54 C 574.30 106.95 561.19 107.89 548.12 107.08 C 547.01 98.54 545.94 89.65 548.20 81.21 C 561.32 80.08 574.53 81.51 587.65 80.27 C 587.95 76.25 588.28 72.23 588.73 68.22 Z" />
<path fill="#000000" d=" M 730.80 81.61 C 735.55 81.27 736.93 74.18 741.85 74.63 C 745.06 76.54 748.11 78.75 751.07 81.04 C 752.65 81.98 751.96 83.89 752.04 85.38 C 735.29 85.54 718.54 85.85 701.79 85.82 C 701.53 84.67 701.28 83.53 701.03 82.39 C 710.92 81.30 720.89 82.31 730.80 81.61 Z" />
<path fill="#000000" d=" M 641.23 81.75 C 657.37 83.06 673.56 81.14 689.71 82.21 C 688.86 83.91 687.88 85.54 686.89 87.16 C 681.84 85.11 676.32 85.82 671.02 85.81 C 666.33 86.03 661.64 85.83 656.96 85.56 C 651.66 85.11 646.20 87.80 641.16 85.19 C 641.17 84.33 641.21 82.61 641.23 81.75 Z" />
<path fill="#000000" d=" M 694.66 97.48 C 696.65 96.32 698.80 97.86 700.59 98.73 C 699.19 103.03 699.79 107.56 699.74 112.00 C 699.79 126.01 699.71 140.02 699.80 154.04 C 699.88 157.55 699.34 161.03 698.51 164.43 C 696.60 164.73 694.70 165.01 692.80 165.28 C 691.84 162.29 690.89 159.24 690.98 156.07 C 691.00 144.04 691.00 132.00 691.02 119.97 C 691.04 114.66 690.20 109.38 689.03 104.21 C 690.69 101.81 692.14 99.10 694.66 97.48 Z" />
</svg>
