<?xml version="1.0" encoding="UTF-8" ?>
<!DOCTYPE svg PUBLIC "-//W3C//DTD SVG 1.1//EN" "http://www.w3.org/Graphics/SVG/1.1/DTD/svg11.dtd">
<svg width="145pt" height="146pt" viewBox="0 0 145 146" version="1.1" xmlns="http://www.w3.org/2000/svg">
<path fill="#006b00" d=" M 69.25 19.20 C 73.52 18.60 78.41 17.85 81.93 20.96 C 80.11 23.58 78.00 26.10 76.92 29.14 C 76.58 34.45 77.05 39.78 76.78 45.09 C 76.56 47.65 77.60 50.03 78.24 52.44 C 78.52 53.56 78.75 54.69 78.94 55.83 C 79.73 62.99 84.97 68.41 88.80 74.15 C 92.33 80.13 97.97 84.36 102.61 89.41 C 107.38 94.60 113.92 97.45 119.72 101.25 C 123.95 104.03 129.20 105.08 132.83 108.79 C 129.83 111.52 127.36 114.80 124.31 117.45 C 120.73 119.04 118.34 114.98 115.61 113.43 C 109.19 109.70 104.46 103.91 99.22 98.80 C 94.52 94.07 90.44 88.77 86.80 83.20 C 83.61 78.52 82.11 72.70 77.65 68.95 C 77.22 68.46 76.38 67.49 75.95 67.00 C 74.25 67.18 72.48 67.21 70.86 67.83 C 68.67 69.52 67.52 72.12 66.02 74.38 C 55.40 89.37 43.01 103.23 28.39 114.42 C 23.84 117.40 19.95 121.59 14.49 122.92 C 14.84 121.32 14.90 119.46 16.31 118.37 C 20.99 114.05 26.09 110.14 30.28 105.31 C 35.05 99.78 40.07 94.45 44.76 88.85 C 49.12 82.52 53.69 76.29 57.49 69.59 C 59.54 65.45 61.22 61.10 63.84 57.26 C 64.88 55.60 65.94 53.95 66.84 52.20 C 69.72 41.45 66.34 30.01 69.25 19.20 Z" />
<path fill="#000000" d=" M 106.95 51.71 C 111.67 51.83 113.22 46.32 117.11 44.64 C 118.89 44.00 120.27 45.52 121.63 46.37 C 124.12 48.34 127.03 49.78 129.20 52.14 C 129.14 53.26 128.99 54.37 128.74 55.47 C 112.14 55.45 95.54 55.86 78.94 55.83 C 78.75 54.69 78.52 53.56 78.24 52.44 C 87.77 51.26 97.39 52.26 106.95 51.71 Z" />
<path fill="#000000" d=" M 18.16 51.88 C 34.38 52.77 50.62 51.29 66.84 52.20 C 65.94 53.95 64.88 55.60 63.84 57.26 C 58.23 54.75 51.96 55.97 46.02 55.86 C 39.11 56.22 32.15 54.79 25.31 56.28 C 22.81 57.03 20.42 56.01 18.17 54.99 C 18.17 54.22 18.17 52.66 18.16 51.88 Z" />
<path fill="#000000" d=" M 70.86 67.83 C 72.48 67.21 74.25 67.18 75.95 67.00 C 76.38 67.49 77.22 68.46 77.65 68.95 C 76.32 72.49 76.73 76.30 76.72 80.00 C 76.81 95.01 76.68 110.03 76.79 125.04 C 76.89 128.22 76.28 131.36 75.45 134.42 C 73.62 134.73 71.78 134.99 69.94 135.28 C 68.81 132.33 67.80 129.26 67.97 126.06 C 68.03 114.37 67.97 102.69 68.03 91.01 C 68.12 85.40 67.31 79.82 66.02 74.38 C 67.52 72.12 68.67 69.52 70.86 67.83 Z" />
</svg>
